<svg width="237" height="58" viewBox="0 0 237 58" fill="none" xmlns="http://www.w3.org/2000/svg">
<rect width="237" height="58" fill="white"/>
<g clip-path="url(#clip0_2_52)">
<path fill-rule="evenodd" clip-rule="evenodd" d="M25.5 9C32.4035 9 38 13.4771 38 19V9H50.5C57.4035 9 63 13.4771 63 19C63 24.5228 57.4035 29 50.5 29C57.4035 29 63 33.4772 63 39C63 41.7423 61.6201 44.2268 59.3856 46.0334L59.3389 46.0711L59.2974 46.1041C57.0386 47.8943 53.9308 49 50.5 49C47.0926 49 44.0036 47.9093 41.7488 46.1405C41.7195 46.1175 41.6902 46.0943 41.6611 46.0711C41.6337 46.0492 41.6065 46.0272 41.5794 46.0051C39.3655 44.2009 38 41.728 38 39C38 44.5228 32.4035 49 25.5 49C18.5964 49 13 44.5228 13 39V29H25.5C18.5964 29 13 24.5228 13 19C13 13.4771 18.5964 9 25.5 9ZM35.5 19C35.5 23.4183 31.0229 27 25.5 27V11C31.0229 11 35.5 14.5817 35.5 19ZM60.5 39C60.5 34.5817 56.0229 31 50.5 31C44.9771 31 40.5 34.5817 40.5 39H60.5ZM15.5 31V39C15.5 43.4183 19.9771 47 25.5 47C31.0229 47 35.5 43.4183 35.5 39V31H15.5ZM40.5 27V11H50.5C56.0229 11 60.5 14.5817 60.5 19C60.5 23.4183 56.0229 27 50.5 27H40.5Z" fill="#1A4688"/>
</g>
<path d="M67.533 42V41.2655L68.885 41.025L68.898 36.9105L68.885 33.29L67.533 33.069V32.25H74.475V34.5445H73.695L73.4675 33.095H70.5685L70.12 33.225L70.107 36.9105L70.12 41.0575L70.575 41.2135H73.877L74.371 39.5105H75.151L74.891 42H67.533ZM69.509 37.242V36.5465L72.5315 36.4815L72.759 35.4415H73.526V38.3405H72.759L72.5315 37.307L69.509 37.242ZM75.7713 42V41.389L76.7333 41.1615L76.7463 38.5355L76.7333 36.54L75.7713 36.345V35.6365L77.5133 35.4155L77.7408 35.591L77.9033 36.2475L77.8903 38.5355L77.9033 41.1615L78.8003 41.389V42H75.7713ZM77.8708 37.307L77.6238 36.774C77.8232 36.345 78.1655 35.9897 78.6508 35.708C79.1362 35.422 79.6497 35.279 80.1913 35.279C80.8717 35.279 81.383 35.4415 81.7253 35.7665C82.0677 36.0872 82.2388 36.5292 82.2388 37.0925C82.2388 37.4132 82.2323 37.7338 82.2193 38.0545C82.2107 38.3752 82.2063 38.5355 82.2063 38.5355L82.2388 41.1615L83.2008 41.389V42H80.0353V41.389L81.0623 41.1615L81.0753 38.5355V37.4175C81.0753 37.0795 80.9518 36.8065 80.7048 36.5985C80.4622 36.3862 80.1588 36.28 79.7948 36.28C79.4005 36.28 79.0322 36.3732 78.6898 36.5595C78.3475 36.7458 78.0745 36.995 77.8708 37.307ZM82.1868 37.307L81.9398 36.787C82.1392 36.358 82.4815 36.0005 82.9668 35.7145C83.4522 35.4285 83.9657 35.2855 84.5073 35.2855C85.1877 35.2855 85.699 35.448 86.0413 35.773C86.3837 36.0937 86.5548 36.5357 86.5548 37.099C86.5548 37.4197 86.5483 37.7403 86.5353 38.061C86.5267 38.3773 86.5223 38.5355 86.5223 38.5355L86.5548 41.1615L87.5168 41.389V42H84.3513V41.389L85.3783 41.1615L85.3913 38.5355V37.4175C85.3913 37.0795 85.2765 36.8065 85.0468 36.5985C84.8172 36.3862 84.5052 36.28 84.1108 36.28C83.7078 36.28 83.3373 36.3732 82.9993 36.5595C82.6613 36.7458 82.3905 36.995 82.1868 37.307ZM88.3438 45.12V44.509L89.2733 44.2815L89.2863 39.1855L89.2733 36.54L88.3113 36.345V35.6365L90.0598 35.4155L90.2873 35.591L90.4498 36.2475L90.4368 39.1855L90.4498 44.2815L91.4378 44.509V45.12H88.3438ZM90.1443 41.0835L90.4173 40.3425C90.5559 40.6068 90.7878 40.8365 91.1128 41.0315C91.4378 41.2265 91.8234 41.324 92.2698 41.324C92.8591 41.324 93.3228 41.0878 93.6608 40.6155C93.9988 40.1432 94.1678 39.4975 94.1678 38.6785C94.1678 37.8985 93.9988 37.2897 93.6608 36.852C93.3271 36.41 92.8743 36.189 92.3023 36.189C91.8603 36.189 91.4811 36.2843 91.1648 36.475C90.8484 36.6657 90.5993 36.9083 90.4173 37.203L90.1703 36.787C90.3609 36.358 90.6643 36.0005 91.0803 35.7145C91.4963 35.4285 92.0249 35.2855 92.6663 35.2855C93.4679 35.2855 94.1288 35.578 94.6488 36.163C95.1731 36.7437 95.4353 37.5258 95.4353 38.5095C95.4353 39.5798 95.1644 40.4422 94.6228 41.0965C94.0811 41.7508 93.3509 42.078 92.4323 42.078C91.8516 42.078 91.3598 41.9718 90.9568 41.7595C90.5538 41.5472 90.2829 41.3218 90.1443 41.0835ZM96.2978 38.711C96.2978 37.7577 96.6142 36.9473 97.2468 36.28C97.8795 35.6083 98.7093 35.2725 99.7363 35.2725C100.772 35.2725 101.608 35.5867 102.245 36.215C102.882 36.839 103.201 37.658 103.201 38.672C103.201 39.621 102.887 40.4378 102.258 41.1225C101.634 41.8028 100.807 42.143 99.7753 42.143C98.744 42.143 97.9055 41.8267 97.2598 41.194C96.6185 40.5613 96.2978 39.7337 96.2978 38.711ZM97.5393 38.5875C97.5437 39.3545 97.7452 40.0045 98.1438 40.5375C98.5425 41.0662 99.069 41.3305 99.7233 41.3305C100.43 41.3305 100.974 41.0878 101.355 40.6025C101.736 40.1172 101.927 39.4737 101.927 38.672C101.927 37.9353 101.725 37.3287 101.322 36.852C100.924 36.371 100.395 36.1305 99.7363 36.1305C99.0257 36.1305 98.4797 36.3493 98.0983 36.787C97.7213 37.2203 97.535 37.8205 97.5393 38.5875ZM103.548 36.098V35.4155H106.395V36.098L105.531 36.3385L106.259 38.5615L107.078 40.7325L107.786 38.854L108.657 36.2735L109.229 36.93L108.352 39.257L107.338 42.052H106.499L105.329 38.8605L104.341 36.3255L103.548 36.098ZM107.318 36.098V35.4155H110.113V36.098L109.249 36.3385L110.113 38.867L110.809 40.7195L111.641 38.5095L112.395 36.2865L111.517 36.098V35.4155H114.195V36.098L113.214 36.3255L112.271 38.776L111.121 42.052H110.263L109.203 39.1465L108.105 36.3255L107.318 36.098ZM114.541 38.711C114.541 37.7533 114.831 36.9408 115.412 36.2735C115.997 35.6062 116.762 35.2725 117.706 35.2725C118.569 35.2725 119.245 35.5217 119.735 36.02C120.224 36.514 120.512 37.216 120.599 38.126H119.488C119.436 37.45 119.247 36.943 118.922 36.605C118.601 36.267 118.153 36.098 117.577 36.098C117.035 36.098 116.599 36.319 116.27 36.761C115.941 37.203 115.778 37.8075 115.783 38.5745C115.787 39.4282 116.004 40.0847 116.433 40.544C116.866 40.999 117.418 41.2265 118.09 41.2265C118.541 41.2265 118.911 41.181 119.202 41.09C119.496 40.999 119.756 40.8712 119.982 40.7065L120.365 41.1745C120.157 41.4432 119.858 41.6728 119.468 41.8635C119.078 42.0498 118.593 42.143 118.012 42.143C116.981 42.143 116.144 41.8267 115.503 41.194C114.862 40.5613 114.541 39.7337 114.541 38.711ZM115.601 38.594V37.879H120.248L120.599 38.126V38.594H115.601ZM121.271 42V41.389L122.233 41.1615L122.246 38.5355L122.233 36.54L121.271 36.345V35.6365L123.02 35.4155L123.247 35.591L123.41 36.2475L123.397 38.5355L123.41 41.1615L124.437 41.389V42H121.271ZM123.247 37.385L123.026 36.917C123.221 36.488 123.54 36.1305 123.982 35.8445C124.428 35.5585 124.992 35.4155 125.672 35.4155H126.315V37.177H125.542L125.321 36.3515C124.979 36.3515 124.615 36.436 124.229 36.605C123.848 36.7697 123.52 37.0297 123.247 37.385ZM130.485 33.069V32.25H134.034V33.069L132.994 33.2965L133.988 35.1425L135.041 36.865L136.075 35.019L137.004 33.251L135.776 33.069V32.25H139.201V33.069L138.083 33.2445L136.796 35.4285L135.464 37.7945L135.477 41.038L136.894 41.2655V42H132.799V41.2655L134.235 41.038L134.248 37.814L133.007 35.6495L131.564 33.238L130.485 33.069ZM139.424 38.711C139.424 37.7577 139.74 36.9473 140.373 36.28C141.005 35.6083 141.835 35.2725 142.862 35.2725C143.898 35.2725 144.734 35.5867 145.371 36.215C146.008 36.839 146.327 37.658 146.327 38.672C146.327 39.621 146.013 40.4378 145.384 41.1225C144.76 41.8028 143.933 42.143 142.901 42.143C141.87 42.143 141.031 41.8267 140.386 41.194C139.744 40.5613 139.424 39.7337 139.424 38.711ZM140.665 38.5875C140.67 39.3545 140.871 40.0045 141.27 40.5375C141.668 41.0662 142.195 41.3305 142.849 41.3305C143.556 41.3305 144.099 41.0878 144.481 40.6025C144.862 40.1172 145.053 39.4737 145.053 38.672C145.053 37.9353 144.851 37.3287 144.448 36.852C144.05 36.371 143.521 36.1305 142.862 36.1305C142.152 36.1305 141.606 36.3493 141.224 36.787C140.847 37.2203 140.661 37.8205 140.665 38.5875ZM147.103 36.345V35.6365L148.852 35.4155H149.079L149.242 35.6495L149.229 38.8865V40.05C149.229 40.3403 149.339 40.6025 149.56 40.8365C149.781 41.0705 150.098 41.1875 150.509 41.1875C150.86 41.1875 151.213 41.1052 151.569 40.9405C151.928 40.7715 152.219 40.5202 152.44 40.1865L152.674 40.622C152.479 41.0553 152.139 41.4172 151.653 41.7075C151.168 41.9935 150.654 42.1365 150.113 42.1365C149.432 42.1365 148.921 41.9762 148.579 41.6555C148.236 41.3305 148.065 40.8842 148.065 40.3165C148.065 39.9958 148.07 39.6773 148.078 39.361C148.091 39.0447 148.098 38.8865 148.098 38.8865L148.065 36.54L147.103 36.345ZM151.504 36.345V35.6365L153.187 35.4155H153.415L153.577 35.6495L153.564 38.8865L153.577 40.947L154.539 41.142V41.779L152.791 42L152.563 41.8245L152.401 41.0315L152.414 38.8865L152.401 36.54L151.504 36.345ZM155.46 42V41.389L156.422 41.1615L156.435 38.5355L156.422 36.54L155.46 36.345V35.6365L157.208 35.4155L157.436 35.591L157.598 36.2475L157.585 38.5355L157.598 41.1615L158.625 41.389V42H155.46ZM157.436 37.385L157.215 36.917C157.41 36.488 157.728 36.1305 158.17 35.8445C158.617 35.5585 159.18 35.4155 159.86 35.4155H160.504V37.177H159.73L159.509 36.3515C159.167 36.3515 158.803 36.436 158.417 36.605C158.036 36.7697 157.709 37.0297 157.436 37.385ZM164.673 33.069V32.25H168.339V33.069L167.13 33.3355L168.333 36.7935L169.568 40.297L170.809 36.7545L171.674 34.1805L172.174 35.565L171.609 37.112L169.834 42.052H168.983L167.234 37.203L165.778 33.3225L164.673 33.069ZM169.607 33.017V32.25H173.143V33.017L172.064 33.2835L173.169 36.7935L174.319 40.2905L175.574 36.761L176.737 33.29L175.457 33.069V32.25H179.012V33.069L177.777 33.3225L176.386 37.073L174.599 42.052H173.708L172.103 37.242L170.712 33.2705L169.607 33.017ZM179.097 38.711C179.097 37.7577 179.413 36.9473 180.046 36.28C180.678 35.6083 181.508 35.2725 182.535 35.2725C183.571 35.2725 184.407 35.5867 185.044 36.215C185.681 36.839 186 37.658 186 38.672C186 39.621 185.685 40.4378 185.057 41.1225C184.433 41.8028 183.605 42.143 182.574 42.143C181.543 42.143 180.704 41.8267 180.059 41.194C179.417 40.5613 179.097 39.7337 179.097 38.711ZM180.338 38.5875C180.342 39.3545 180.544 40.0045 180.943 40.5375C181.341 41.0662 181.868 41.3305 182.522 41.3305C183.228 41.3305 183.772 41.0878 184.154 40.6025C184.535 40.1172 184.726 39.4737 184.726 38.672C184.726 37.9353 184.524 37.3287 184.121 36.852C183.722 36.371 183.194 36.1305 182.535 36.1305C181.824 36.1305 181.278 36.3493 180.897 36.787C180.52 37.2203 180.334 37.8205 180.338 38.5875ZM186.906 42V41.389L187.868 41.1615L187.881 38.5355L187.868 36.54L186.906 36.345V35.6365L188.655 35.4155L188.882 35.591L189.045 36.2475L189.032 38.5355L189.045 41.1615L190.072 41.389V42H186.906ZM188.882 37.385L188.661 36.917C188.856 36.488 189.175 36.1305 189.617 35.8445C190.063 35.5585 190.626 35.4155 191.307 35.4155H191.95V37.177H191.177L190.956 36.3515C190.613 36.3515 190.249 36.436 189.864 36.605C189.482 36.7697 189.155 37.0297 188.882 37.385ZM192.606 42V41.389L193.529 41.1615L193.542 38.5355L193.529 33.147L192.45 32.952V32.25L194.316 32.029H194.524L194.706 32.237L194.693 38.6655L194.706 41.1615L195.603 41.389V42H192.606ZM194.491 39.296L194.439 38.49L196.877 36.293L195.941 36.098V35.4155H198.957V36.098L197.878 36.3255L194.491 39.296ZM195.167 38.1585L196.032 37.4695L198.573 41.1485L199.373 41.389V42H197.787L197.566 41.8375L197.28 41.2525L195.167 38.1585ZM199.573 42V41.389L200.665 41.1615L200.704 38.5355L200.697 36.423L199.638 36.345V35.7665L200.71 35.5195L200.697 33.4655C200.693 32.9455 200.803 32.5793 201.029 32.367C201.258 32.1503 201.573 32.042 201.971 32.042L203.044 32.25V32.926L201.861 33.1535L201.848 38.5355L201.874 41.1615L203.07 41.389V42H199.573ZM201.744 36.345L201.77 35.5845H203.115V36.345H201.744ZM203.802 38.711C203.802 37.7577 204.118 36.9473 204.751 36.28C205.383 35.6083 206.213 35.2725 207.24 35.2725C208.276 35.2725 209.112 35.5867 209.749 36.215C210.386 36.839 210.705 37.658 210.705 38.672C210.705 39.621 210.391 40.4378 209.762 41.1225C209.138 41.8028 208.311 42.143 207.279 42.143C206.248 42.143 205.409 41.8267 204.764 41.194C204.122 40.5613 203.802 39.7337 203.802 38.711ZM205.043 38.5875C205.048 39.3545 205.249 40.0045 205.648 40.5375C206.046 41.0662 206.573 41.3305 207.227 41.3305C207.934 41.3305 208.477 41.0878 208.859 40.6025C209.24 40.1172 209.431 39.4737 209.431 38.672C209.431 37.9353 209.229 37.3287 208.826 36.852C208.428 36.371 207.899 36.1305 207.24 36.1305C206.53 36.1305 205.984 36.3493 205.602 36.787C205.225 37.2203 205.039 37.8205 205.043 38.5875ZM211.611 42V41.389L212.573 41.1615L212.586 38.5355L212.573 36.54L211.611 36.345V35.6365L213.36 35.4155L213.587 35.591L213.75 36.2475L213.737 38.5355L213.75 41.1615L214.777 41.389V42H211.611ZM213.587 37.385L213.366 36.917C213.561 36.488 213.88 36.1305 214.322 35.8445C214.768 35.5585 215.331 35.4155 216.012 35.4155H216.655V37.177H215.882L215.661 36.3515C215.318 36.3515 214.954 36.436 214.569 36.605C214.187 36.7697 213.86 37.0297 213.587 37.385ZM217.233 38.8735C217.233 37.8552 217.545 37.0015 218.169 36.3125C218.798 35.6192 219.534 35.2725 220.379 35.2725C220.921 35.2725 221.378 35.3483 221.751 35.5C222.124 35.6517 222.427 35.8575 222.661 36.1175L221.861 36.956C221.809 36.7177 221.651 36.514 221.387 36.345C221.123 36.1717 220.795 36.085 220.405 36.085C219.868 36.085 219.411 36.3125 219.034 36.7675C218.657 37.2182 218.471 37.8725 218.475 38.7305C218.479 39.4932 218.711 40.0998 219.17 40.5505C219.634 41.0012 220.2 41.2265 220.867 41.2265C221.309 41.2265 221.682 41.1528 221.985 41.0055C222.288 40.8538 222.557 40.6653 222.791 40.44L223.174 40.908C222.966 41.181 222.65 41.4562 222.225 41.7335C221.801 42.0065 221.198 42.143 220.418 42.143C219.504 42.143 218.744 41.8418 218.137 41.2395C217.535 40.6372 217.233 39.8485 217.233 38.8735ZM221.712 36.3905L222.063 35.4025H222.706V37.749H221.991L221.712 36.3905ZM223.898 38.711C223.898 37.7533 224.189 36.9408 224.769 36.2735C225.354 35.6062 226.119 35.2725 227.064 35.2725C227.926 35.2725 228.602 35.5217 229.092 36.02C229.582 36.514 229.87 37.216 229.956 38.126H228.845C228.793 37.45 228.604 36.943 228.279 36.605C227.959 36.267 227.51 36.098 226.934 36.098C226.392 36.098 225.957 36.319 225.627 36.761C225.298 37.203 225.136 37.8075 225.14 38.5745C225.144 39.4282 225.361 40.0847 225.79 40.544C226.223 40.999 226.776 41.2265 227.447 41.2265C227.898 41.2265 228.269 41.181 228.559 41.09C228.854 40.999 229.114 40.8712 229.339 40.7065L229.722 41.1745C229.514 41.4432 229.215 41.6728 228.825 41.8635C228.435 42.0498 227.95 42.143 227.369 42.143C226.338 42.143 225.502 41.8267 224.86 41.194C224.219 40.5613 223.898 39.7337 223.898 38.711ZM224.958 38.594V37.879H229.605L229.956 38.126V38.594H224.958Z" fill="#007AFF"/>
<path d="M66.902 17.1307V15.3636H76.1861V17.1307H72.5895V27H70.4986V17.1307H66.902ZM77.9759 27V15.3636H85.544V17.1307H80.0838V20.2898H85.152V22.0568H80.0838V25.233H85.5895V27H77.9759ZM89.1889 27H86.9389L91.0355 15.3636H93.6378L97.7401 27H95.4901L92.3821 17.75H92.2912L89.1889 27ZM89.2628 22.4375H95.3991V24.1307H89.2628V22.4375ZM99.2727 15.3636H101.852L105.307 23.7955H105.443L108.898 15.3636H111.477V27H109.455V19.0057H109.347L106.131 26.9659H104.619L101.403 18.9886H101.295V27H99.2727V15.3636ZM113.773 27V15.3636H121.341V17.1307H115.881V20.2898H120.949V22.0568H115.881V25.233H121.386V27H113.773ZM127.435 27H123.491V15.3636H127.514C128.67 15.3636 129.662 15.5966 130.491 16.0625C131.325 16.5246 131.965 17.1894 132.412 18.0568C132.859 18.9242 133.082 19.9621 133.082 21.1705C133.082 22.3826 132.857 23.4242 132.406 24.2955C131.959 25.1667 131.313 25.8352 130.469 26.3011C129.628 26.767 128.616 27 127.435 27ZM125.599 25.1761H127.332C128.143 25.1761 128.819 25.0284 129.361 24.733C129.902 24.4337 130.31 23.9886 130.582 23.3977C130.855 22.803 130.991 22.0606 130.991 21.1705C130.991 20.2803 130.855 19.5417 130.582 18.9545C130.31 18.3636 129.906 17.9223 129.372 17.6307C128.842 17.3352 128.183 17.1875 127.395 17.1875H125.599V25.1761ZM142.881 19.0795C142.786 18.7727 142.655 18.4981 142.489 18.2557C142.326 18.0095 142.129 17.7992 141.898 17.625C141.67 17.4508 141.409 17.3201 141.114 17.233C140.818 17.142 140.496 17.0966 140.148 17.0966C139.523 17.0966 138.966 17.2538 138.477 17.5682C137.989 17.8826 137.604 18.3447 137.324 18.9545C137.047 19.5606 136.909 20.2992 136.909 21.1705C136.909 22.0492 137.047 22.7936 137.324 23.4034C137.6 24.0133 137.985 24.4773 138.477 24.7955C138.97 25.1098 139.542 25.267 140.193 25.267C140.784 25.267 141.295 25.1534 141.727 24.9261C142.163 24.6989 142.498 24.3769 142.733 23.9602C142.968 23.5398 143.085 23.0473 143.085 22.483L143.562 22.5568H140.403V20.9091H145.125V22.3068C145.125 23.303 144.913 24.1648 144.489 24.892C144.064 25.6193 143.481 26.1799 142.739 26.5739C141.996 26.964 141.144 27.1591 140.182 27.1591C139.11 27.1591 138.169 26.9186 137.358 26.4375C136.551 25.9527 135.92 25.2652 135.466 24.375C135.015 23.4811 134.79 22.4205 134.79 21.1932C134.79 20.2538 134.922 19.4148 135.188 18.6761C135.456 17.9375 135.831 17.3106 136.312 16.7955C136.794 16.2765 137.358 15.8826 138.006 15.6136C138.653 15.3409 139.358 15.2045 140.119 15.2045C140.763 15.2045 141.364 15.2992 141.92 15.4886C142.477 15.6742 142.972 15.9394 143.403 16.2841C143.839 16.6288 144.197 17.0379 144.477 17.5114C144.758 17.9848 144.941 18.5076 145.028 19.0795H142.881ZM147.163 27V15.3636H154.732V17.1307H149.271V20.2898H154.339V22.0568H149.271V25.233H154.777V27H147.163Z" fill="#1A4688"/>
<defs>
<clipPath id="clip0_2_52">
<rect width="50" height="40" fill="white" transform="translate(13 9)"/>
</clipPath>
</defs>
</svg>
