<svg width="50" height="40" viewBox="0 0 50 40" fill="none" xmlns="http://www.w3.org/2000/svg">
<path fill-rule="evenodd" clip-rule="evenodd" d="M12.5 0C19.4035 0 25 4.47715 25 10V0H37.5C44.4035 0 50 4.47715 50 10C50 15.5228 44.4035 20 37.5 20C44.4035 20 50 24.4772 50 30C50 32.7423 48.6201 35.2268 46.3856 37.0334L46.3389 37.0711L46.2974 37.1041C44.0386 38.8943 40.9308 40 37.5 40C34.0926 40 31.0036 38.9093 28.7488 37.1405C28.7195 37.1175 28.6902 37.0943 28.6611 37.0711C28.6337 37.0492 28.6065 37.0272 28.5794 37.0051C26.3655 35.2009 25 32.728 25 30C25 35.5228 19.4035 40 12.5 40C5.59644 40 0 35.5228 0 30V20H12.5C5.59644 20 0 15.5228 0 10C0 4.47715 5.59644 0 12.5 0ZM22.5 10C22.5 14.4183 18.0229 18 12.5 18V2C18.0229 2 22.5 5.58172 22.5 10ZM47.5 30C47.5 25.5817 43.0229 22 37.5 22C31.9771 22 27.5 25.5817 27.5 30H47.5ZM2.5 22V30C2.5 34.4183 6.97715 38 12.5 38C18.0229 38 22.5 34.4183 22.5 30V22H2.5ZM27.5 18V2H37.5C43.0229 2 47.5 5.58172 47.5 10C47.5 14.4183 43.0229 18 37.5 18H27.5Z" fill="#1A4688"/>
</svg>
